<svg width="37" height="36" viewBox="0 0 37 36" fill="none" xmlns="http://www.w3.org/2000/svg">
<path fill-rule="evenodd" clip-rule="evenodd" d="M18.5 27.0231L25.7432 31.2734C26.5036 31.7196 27.4274 31.0349 27.2217 30.1776L25.31 22.2106L31.6453 16.8749C32.3278 16.3 31.9727 15.1867 31.0833 15.1134L22.715 14.4231L19.4167 6.85716C19.0677 6.05666 17.9323 6.05665 17.5833 6.85716L14.285 14.4231L5.91674 15.1134C5.02734 15.1867 4.67217 16.3 5.35475 16.8749L11.69 22.2106L9.77832 30.1776C9.5726 31.0349 10.4964 31.7196 11.2568 31.2734L18.5 27.0231Z" fill="#00A738"/>
<mask id="mask0_595_731" style="mask-type:luminance" maskUnits="userSpaceOnUse" x="4" y="6" width="29" height="26">
<path fill-rule="evenodd" clip-rule="evenodd" d="M18.5 27.0231L25.7432 31.2734C26.5036 31.7196 27.4274 31.0349 27.2217 30.1776L25.31 22.2106L31.6453 16.8749C32.3278 16.3 31.9727 15.1867 31.0833 15.1134L22.715 14.4231L19.4167 6.85716C19.0677 6.05666 17.9323 6.05665 17.5833 6.85716L14.285 14.4231L5.91674 15.1134C5.02734 15.1867 4.67217 16.3 5.35475 16.8749L11.69 22.2106L9.77832 30.1776C9.5726 31.0349 10.4964 31.7196 11.2568 31.2734L18.5 27.0231Z" fill="white"/>
</mask>
<g mask="url(#mask0_595_731)">
<rect x="0.5" y="0.379395" width="36" height="35" fill="#0DAA41"/>
</g>
</svg>
