<svg width="36" height="36" viewBox="0 0 36 36" fill="none" xmlns="http://www.w3.org/2000/svg">
<path fill-rule="evenodd" clip-rule="evenodd" d="M17.9998 27.0231L24.9833 31.2381C25.7407 31.6952 26.6749 31.0162 26.4739 30.1548L24.6207 22.2106L30.7918 16.8646C31.4604 16.2854 31.103 15.1871 30.2215 15.1124L22.0978 14.4231L18.9206 6.92677C18.576 6.11374 17.4237 6.11374 17.0791 6.92676L13.9019 14.4231L5.77814 15.1124C4.89671 15.1871 4.5393 16.2854 5.2079 16.8646L11.379 22.2106L9.52575 30.1548C9.32479 31.0162 10.259 31.6952 11.0163 31.2381L17.9998 27.0231Z" fill="#00A738"/>
<mask id="mask0_595_733" style="mask-type:luminance" maskUnits="userSpaceOnUse" x="4" y="6" width="28" height="26">
<path fill-rule="evenodd" clip-rule="evenodd" d="M17.9998 27.0231L24.9833 31.2381C25.7407 31.6952 26.6749 31.0162 26.4739 30.1548L24.6207 22.2106L30.7918 16.8646C31.4604 16.2854 31.103 15.1871 30.2215 15.1124L22.0978 14.4231L18.9206 6.92677C18.576 6.11374 17.4237 6.11374 17.0791 6.92676L13.9019 14.4231L5.77814 15.1124C4.89671 15.1871 4.5393 16.2854 5.2079 16.8646L11.379 22.2106L9.52575 30.1548C9.32479 31.0162 10.259 31.6952 11.0163 31.2381L17.9998 27.0231Z" fill="white"/>
</mask>
<g mask="url(#mask0_595_733)">
<rect x="0.5" y="0.379395" width="35" height="35" fill="#0DAA41"/>
</g>
</svg>
