<svg width="20" height="21" viewBox="0 0 20 21" fill="none" xmlns="http://www.w3.org/2000/svg">
<path fill-rule="evenodd" clip-rule="evenodd" d="M10.5879 4.30053C10.2633 3.97592 9.73701 3.97592 9.4124 4.30053C9.08799 4.62494 9.08776 5.15083 9.41187 5.47553L13.4752 9.5461H4.16683C3.70659 9.5461 3.3335 9.9192 3.3335 10.3794C3.3335 10.8397 3.70659 11.2128 4.16683 11.2128H13.4752L9.41187 15.2833C9.08776 15.608 9.08799 16.1339 9.4124 16.4583C9.73701 16.783 10.2633 16.783 10.5879 16.4583L16.6668 10.3794L10.5879 4.30053Z" fill="black" fill-opacity="0.7"/>
<mask id="mask0_595_738" style="mask-type:luminance" maskUnits="userSpaceOnUse" x="3" y="4" width="14" height="13">
<path fill-rule="evenodd" clip-rule="evenodd" d="M10.5879 4.30053C10.2633 3.97592 9.73701 3.97592 9.4124 4.30053C9.08799 4.62494 9.08776 5.15083 9.41187 5.47553L13.4752 9.5461H4.16683C3.70659 9.5461 3.3335 9.9192 3.3335 10.3794C3.3335 10.8397 3.70659 11.2128 4.16683 11.2128H13.4752L9.41187 15.2833C9.08776 15.608 9.08799 16.1339 9.4124 16.4583C9.73701 16.783 10.2633 16.783 10.5879 16.4583L16.6668 10.3794L10.5879 4.30053Z" fill="white"/>
</mask>
<g mask="url(#mask0_595_738)">
<rect y="0.379395" width="20" height="20" fill="#424B5A"/>
</g>
</svg>
