<svg width="81" height="81" viewBox="0 0 81 81" fill="none" xmlns="http://www.w3.org/2000/svg">
<path d="M36.2833 0.879272L31.6333 5.27927L33.5333 7.27927H22.1333C13.6833 7.27927 6.7833 14.1793 6.7833 22.6293V28.7293H13.1833V22.6293C13.1833 17.6355 17.1395 13.6793 22.1333 13.6793H33.5333L31.6833 15.6293L36.3333 20.0293L43.2333 12.6793L45.2833 10.4793L43.2333 8.27927L36.2833 0.879272ZM52.5333 7.27927V13.6793H58.6333C63.627 13.6793 67.5833 17.6355 67.5833 22.6293V34.0293L65.6333 32.1793L61.2333 36.8293L68.5833 43.7293L70.7833 45.8293L72.9833 43.7293L80.2833 36.8793L75.8833 32.2293L73.9833 34.0293V22.6293C73.9833 14.1793 67.0833 7.27927 58.6333 7.27927H52.5333ZM9.9833 35.9293L7.7833 38.0293L0.383301 44.9793L4.7333 49.6293L6.7833 47.7293V59.1293C6.7833 67.5793 13.6833 74.4793 22.1333 74.4793H28.2333V68.0793H22.1333C17.1395 68.0793 13.1833 64.123 13.1833 59.1293V47.7293L15.1833 49.6293L19.5333 44.9293L12.1833 38.0293L9.9833 35.9293ZM67.5833 53.0293V59.1293C67.5833 64.123 63.627 68.0793 58.6333 68.0793H47.2333L49.0833 66.1293L44.4333 61.7293L37.5333 69.0793L35.4833 71.2793L37.5333 73.4793L44.4833 80.8293L49.1333 76.4793L47.2333 74.4793H58.6333C67.0833 74.4793 73.9833 67.573 73.9833 59.1293V53.0293H67.5833Z" fill="url(#paint0_linear_490_1129)" fill-opacity="0.7"/>
<defs>
<linearGradient id="paint0_linear_490_1129" x1="40.3333" y1="0.879272" x2="40.3333" y2="80.8293" gradientUnits="userSpaceOnUse">
<stop stop-color="white"/>
<stop offset="1" stop-color="#999999" stop-opacity="0.5"/>
</linearGradient>
</defs>
</svg>
