<svg width="58" height="86" viewBox="0 0 58 86" fill="none" xmlns="http://www.w3.org/2000/svg">
<path d="M28.667 0.879272C12.9549 0.879272 0.166992 13.316 0.166992 28.5967C0.166992 39.9939 5.45873 45.487 9.31074 49.5002C11.7378 52.0337 13.467 53.8526 13.467 56.3141V65.5532H26.767V38.5865L19.7014 31.7726C18.9592 31.0508 18.9592 29.8382 19.7014 29.1164C20.4436 28.3946 21.6904 28.3946 22.4326 29.1164L28.667 35.2373L34.9014 29.1164C35.6436 28.3946 36.8904 28.3946 37.6326 29.1164C38.3748 29.8382 38.3748 31.0508 37.6326 31.7726L30.567 38.5865V65.5532H43.867V56.3141C43.867 52.7772 45.9674 50.6334 48.617 47.9411C52.4318 44.0649 57.167 39.265 57.167 28.5967C57.167 13.316 44.3792 0.879272 28.667 0.879272ZM13.467 69.2488V74.7923C13.467 77.8455 16.0275 80.3358 19.167 80.3358H21.3639C22.21 83.5189 25.1342 85.8793 28.667 85.8793C32.1998 85.8793 35.124 83.5189 35.9701 80.3358H38.167C41.3064 80.3358 43.867 77.8455 43.867 74.7923V69.2488H13.467Z" fill="url(#paint0_linear_490_1186)" fill-opacity="0.77"/>
<defs>
<linearGradient id="paint0_linear_490_1186" x1="28.667" y1="0.879272" x2="28.667" y2="85.8793" gradientUnits="userSpaceOnUse">
<stop stop-color="white" stop-opacity="0.7"/>
<stop offset="1" stop-color="#999999" stop-opacity="0.5"/>
</linearGradient>
</defs>
</svg>
